<svg width="181" height="64" viewBox="0 0 181 64" fill="none" xmlns="http://www.w3.org/2000/svg">
<path d="M53.0128 44.0563H47.3482L52.54 33.7067L53.0128 44.0563ZM53.4855 48.7615L53.9583 52.9956H60.5684L58.2045 29.0015H48.2893L36 52.9956H42.6101L44.513 48.7615H53.4855ZM69.5396 45.9393H68.5955L67.1771 52.9956H61.5125L66.7058 29H72.3704L69.5381 42.1734H70.4822L75.2041 36.0563H81.343L74.7328 44.0549L78.5092 52.9956H72.3704L69.5396 45.9393ZM88.4259 45.9393C90.3287 45.9393 91.2582 45.9393 91.2582 47.3511C90.7854 49.2472 90.3141 49.2472 87.9531 49.2472C87.009 49.2472 85.5921 49.2472 86.0503 47.3511C85.5775 45.9393 86.9944 45.9393 88.4112 45.9393H88.4259ZM89.8427 52.9985H95.5073L97.8683 42.6474C99.2852 37.0029 96.9242 36.0607 91.2582 36.0607C87.4818 36.0607 83.7054 36.0607 82.2856 41.2356H87.9502C88.4229 39.8237 89.367 39.3395 90.7824 39.3395C93.1434 39.3395 93.1434 40.2802 92.6853 41.6921L92.2125 44.5143H91.7397C91.7397 42.6182 88.9074 42.6182 87.4905 42.6182C83.7142 42.6182 81.3517 44.0301 80.4062 47.7931C79.4621 52.0272 81.3503 52.9679 85.5994 52.9679C87.5023 52.9679 90.3214 52.4968 90.7927 50.1457L89.8427 52.9985ZM106.383 36.0607L105.91 38.4133C106.854 36.5172 109.215 36.0607 111.103 36.0607C113.464 36.0607 115.825 36.5318 115.352 39.3541H115.825C116.769 37.0015 119.13 36.0607 121.018 36.0607C124.795 36.0607 126.683 37.4726 125.74 41.7052L123.379 52.9971H117.715L119.618 43.117C120.09 41.221 120.09 40.2948 118.201 40.2948C115.84 40.2948 115.368 41.7067 114.896 43.5881L112.993 52.9985H107.8L110.161 42.6474C110.633 41.2356 110.633 39.8252 108.744 39.8252C106.383 39.8252 105.911 41.237 105.439 43.1185L103.536 52.5289H97.8712L101.648 35.5911H106.37L106.383 36.0607ZM134.713 45.9407C136.616 45.9407 137.545 45.9408 137.545 47.3526C137.072 49.2487 136.601 49.2487 134.24 49.2487C133.296 49.2487 131.879 49.2487 132.337 47.3526C132.337 45.9408 133.281 45.9407 134.698 45.9407H134.713ZM136.616 53H142.28L144.641 42.6489C146.058 37.0044 143.697 36.0622 138.031 36.0622C134.255 36.0622 130.478 36.0622 129.059 41.237H134.723C135.196 39.8252 136.14 39.3409 137.555 39.3409C139.916 39.3409 139.916 40.2817 139.458 41.6935L138.985 44.5158H138.46C138.46 42.6197 135.628 42.6197 134.211 42.6197C130.434 42.6197 127.601 44.0315 127.126 47.7945C126.182 52.0286 128.071 52.9694 132.32 52.9694C134.223 52.9694 137.042 52.4983 137.513 50.1471L136.616 53ZM149.836 53H144.171L147.948 36.0622H153.612L149.836 53ZM154.085 33.2399H148.421L149.365 29.0058H155L154.085 33.2399Z" fill="white"/>
<path d="M38.767 59.5602C26.6742 55.7171 17.8385 44.1911 17.8385 30.7397C17.8385 16.8104 26.6771 5.28285 39.2356 1.44132C40.6313 0.960383 40.1656 0 38.7699 0C22.0228 0.483914 9 13.9293 9 30.7397C9 47.5502 22.0228 61 38.767 61C40.1627 61 40.1627 60.0411 38.767 59.5602ZM23.4185 37.4654V35.0637C23.3879 31.9011 23.9685 28.764 25.1263 25.836C26.2842 22.908 27.996 20.248 30.1616 18.0116C32.3272 15.7752 34.9031 14.0074 37.7385 12.8117C40.5738 11.6161 43.6116 11.0165 46.6741 11.0481C58.7669 11.0481 62.4883 16.8104 62.967 16.331C63.4457 15.8515 58.7813 4.80341 44.3628 4.80341C41.3003 4.77176 38.2625 5.37133 35.4272 6.56702C32.5918 7.7627 30.016 9.53048 27.8503 11.7669C25.6847 14.0033 23.9729 16.6633 22.815 19.5913C21.6572 22.5193 21.0766 25.6564 21.1072 28.819C21.1072 31.7001 21.5729 34.5813 22.5029 37.4639C22.9687 38.9052 23.4329 38.9052 23.4329 37.4639L23.4185 37.4654ZM33.1856 20.174C39.2327 17.2929 46.6741 17.2929 54.1155 20.174C59.2312 22.1097 62.0226 24.4965 62.4869 24.4965C62.9512 24.4965 59.6969 18.7342 53.6484 16.331C46.2084 13.4498 38.7641 14.8897 32.7184 19.6931C32.2527 20.174 32.7199 20.6535 33.1856 20.174Z" fill="white"/>
</svg>
