<svg width="81" height="64" viewBox="0 0 81 64" fill="none" xmlns="http://www.w3.org/2000/svg">
<path d="M22.5587 25.4493C22.5308 26.2541 22.6366 27.058 22.8717 27.8282C23.0972 28.4931 23.3836 29.1358 23.7273 29.748C23.8435 29.929 23.9084 30.1382 23.9151 30.3532C23.8987 30.5177 23.8427 30.6758 23.7519 30.8139C23.661 30.952 23.538 31.066 23.3934 31.1461L21.724 32.2521C21.5182 32.4052 21.2709 32.4924 21.0145 32.5025C20.864 32.4961 20.7162 32.4596 20.58 32.3951C20.4438 32.3305 20.3219 32.2394 20.2216 32.1269C19.8564 31.7514 19.5408 31.3306 19.2825 30.8749C19.0113 30.4366 18.74 29.915 18.4478 29.3307C17.5066 30.4952 16.3132 31.4309 14.9576 32.0671C13.6021 32.7033 12.1198 33.0234 10.6226 33.0033C9.64685 33.0641 8.66892 32.9272 7.74739 32.6009C6.82586 32.2746 5.97969 31.7656 5.25962 31.1044C4.59515 30.4268 4.0779 29.6192 3.74035 28.7322C3.4028 27.8452 3.25222 26.8981 3.29808 25.9501C3.25851 24.9147 3.45602 23.8838 3.87553 22.9363C4.29505 21.9888 4.92548 21.1496 5.71871 20.4829C7.56753 19.0121 9.89114 18.2698 12.2502 18.3961C13.1927 18.4056 14.1337 18.4753 15.0673 18.6048C16.0481 18.7509 17.1541 18.9387 18.1348 19.1891V17.2275C18.2734 15.7268 17.8246 14.2307 16.8828 13.0541C15.6498 12.096 14.0961 11.6478 12.5424 11.802C11.572 11.8094 10.6058 11.9284 9.66265 12.1568C8.68104 12.39 7.71841 12.6969 6.78295 13.0749C6.48806 13.2148 6.18064 13.3266 5.86478 13.4088C5.72642 13.4294 5.58579 13.4294 5.44743 13.4088C5.07182 13.4088 4.88401 13.1167 4.88401 12.5741V11.2595C4.85824 10.9351 4.92327 10.6099 5.07182 10.3204C5.27019 10.0805 5.51974 9.88798 5.80218 9.757C6.88845 9.24816 8.02031 8.84292 9.1827 8.54669C10.5472 8.20457 11.9495 8.0363 13.3562 8.04587C15.8632 7.79997 18.3665 8.54944 20.3259 10.1326C21.1198 11.0177 21.7252 12.055 22.1055 13.1814C22.4858 14.3079 22.6329 15.4999 22.5379 16.685L22.5587 25.4493ZM11.7285 29.4976C12.6672 29.4936 13.5984 29.3314 14.483 29.0177C15.4609 28.68 16.332 28.0897 17.008 27.3065C17.4372 26.8193 17.751 26.2415 17.9262 25.6163C18.1057 24.8576 18.1898 24.0795 18.1766 23.3V22.1731C17.3583 21.9779 16.5291 21.8315 15.6933 21.7349C14.8628 21.6288 14.0266 21.573 13.1893 21.568C11.7817 21.4578 10.3797 21.8415 9.22444 22.6531C8.78121 23.0264 8.43148 23.4982 8.2032 24.0309C7.97493 24.5635 7.87445 25.1422 7.90979 25.7206C7.87423 26.2353 7.94274 26.7518 8.11125 27.2394C8.27976 27.727 8.54481 28.1757 8.89056 28.5586C9.27805 28.8949 9.72839 29.1511 10.2155 29.3123C10.7026 29.4734 11.2169 29.5364 11.7285 29.4976ZM33.1594 32.3564C32.8005 32.3854 32.4418 32.2976 32.1369 32.106C31.8437 31.8264 31.6465 31.4612 31.5735 31.0627L25.3132 10.4248C25.2027 10.0925 25.1258 9.74991 25.0837 9.40225C25.0737 9.31488 25.0836 9.22638 25.1125 9.14335C25.1415 9.06032 25.1889 8.9849 25.251 8.92271C25.3132 8.86053 25.3886 8.81319 25.4717 8.78421C25.5547 8.75523 25.6432 8.74537 25.7306 8.75536H28.3599C28.7255 8.72481 29.0913 8.8126 29.4033 9.00577C29.6725 9.30807 29.8593 9.67458 29.9458 10.07L34.474 27.6821L38.6475 10.0491C38.7149 9.65143 38.8961 9.28177 39.1692 8.98491C39.4887 8.79146 39.8612 8.70383 40.2335 8.7345H42.3202C42.699 8.70501 43.0777 8.79241 43.4053 8.98491C43.6708 9.28429 43.8447 9.65372 43.9061 10.0491L48.0796 27.9117L52.6913 10.0491C52.7839 9.65162 52.978 9.28491 53.2547 8.98491C53.5655 8.78889 53.9322 8.70088 54.2981 8.7345H56.7813C56.8707 8.72384 56.9613 8.73396 57.0461 8.76408C57.1309 8.7942 57.2076 8.84349 57.2702 8.90813C57.3328 8.97276 57.3796 9.05098 57.4071 9.13669C57.4345 9.2224 57.4417 9.31328 57.4282 9.40225C57.4366 9.54821 57.4366 9.69452 57.4282 9.84047L57.2404 10.4874L50.7506 31.1044C50.6776 31.5029 50.4804 31.8682 50.1872 32.1478C49.8551 32.3466 49.463 32.4206 49.0812 32.3564H46.9945C46.6125 32.3918 46.2298 32.2961 45.9094 32.0852C45.6325 31.7852 45.4572 31.4054 45.4086 31.0001L41.2351 13.8262L37.0616 31.0001C36.9981 31.4052 36.8166 31.7826 36.5399 32.0852C36.2273 32.2962 35.8511 32.3921 35.4757 32.3564H33.1594ZM67.4237 33.0659C66.0186 33.0693 64.6179 32.9082 63.2502 32.586C62.1793 32.3654 61.1413 32.0077 60.1619 31.5218C59.8182 31.3634 59.5333 31.1005 59.348 30.7705C59.2433 30.5336 59.1866 30.2783 59.1811 30.0193V28.6629C59.1811 28.1204 59.3898 27.8282 59.7862 27.8282C59.9519 27.799 60.1214 27.799 60.2871 27.8282L60.9548 28.0995C61.9022 28.5087 62.8878 28.8233 63.8971 29.0385C64.9418 29.2449 66.0041 29.3498 67.069 29.3515C68.4261 29.4304 69.7781 29.1267 70.9712 28.4751C71.3951 28.2354 71.7503 27.8907 72.0024 27.4741C72.2546 27.0575 72.3953 26.583 72.411 26.0962C72.4195 25.7536 72.3592 25.4127 72.2338 25.0937C72.1083 24.7747 71.9203 24.4841 71.6807 24.239C70.9045 23.5814 69.9923 23.1039 69.0097 22.8409L65.1283 21.6097C63.4962 21.1566 62.0406 20.2178 60.9548 18.9178C60.0585 17.819 59.5521 16.4539 59.515 15.0365C59.4892 14.0038 59.7338 12.9823 60.2245 12.0733C60.7245 11.2609 61.3763 10.5524 62.1443 9.98654C62.9753 9.35828 63.9167 8.89115 64.9196 8.60929C66.0118 8.29632 67.1432 8.14171 68.2793 8.15021C68.8792 8.14334 69.4788 8.1782 70.0739 8.25454C70.6791 8.25454 71.2633 8.44235 71.8059 8.56756C72.3208 8.6791 72.8293 8.81842 73.3292 8.98491C73.7111 9.10397 74.0813 9.25763 74.4352 9.44399C74.7466 9.61262 75.0228 9.83928 75.249 10.1117C75.4139 10.3733 75.4941 10.6794 75.4786 10.9882V12.2402C75.4786 12.8036 75.2699 13.0958 74.8734 13.0958C74.5088 13.0463 74.1557 12.9333 73.83 12.7619C72.2118 12.0577 70.4612 11.709 68.6966 11.7394C67.4687 11.6744 66.2453 11.9335 65.1492 12.4906C64.8212 12.7167 64.5457 13.0107 64.3415 13.3526C64.1372 13.6946 64.0089 14.0765 63.9654 14.4724C63.9218 14.8683 63.964 15.269 64.0891 15.6472C64.2141 16.0254 64.4191 16.3722 64.6901 16.6641C65.5553 17.3601 66.5581 17.865 67.6324 18.1457L71.4094 19.356C73.0323 19.76 74.4902 20.6567 75.5829 21.9227C76.405 22.9922 76.8392 24.3093 76.8141 25.658C76.8535 26.7204 76.6463 27.7774 76.2089 28.7464C75.6872 29.6706 74.9761 30.4742 74.1222 31.1044C73.2374 31.7817 72.2318 32.2845 71.159 32.586C69.9465 32.9432 68.6877 33.119 67.4237 33.1077V33.0659Z" fill="white"/>
<path fill-rule="evenodd" clip-rule="evenodd" d="M72.4529 46.0664C63.6886 52.5562 50.9595 55.9993 39.9832 55.9993C25.3444 56.0691 11.2063 50.6743 0.335035 40.8704C-0.478796 40.1192 0.335035 39.1176 1.23234 39.681C13.306 46.5845 26.9725 50.2169 40.8805 50.2191C51.2874 50.1491 61.5777 48.0216 71.1591 43.9588C72.6616 43.3954 73.9137 45.0022 72.4529 46.0664Z" fill="white"/>
<path fill-rule="evenodd" clip-rule="evenodd" d="M76.2093 41.8929C75.0825 40.453 68.7805 41.2251 65.9425 41.559C65.087 41.6634 64.9618 40.9121 65.7339 40.3696C70.7629 36.843 78.9847 37.8655 79.9446 39.0341C80.9045 40.2026 79.6942 48.487 74.9781 52.4309C74.2686 53.0361 73.58 52.7231 73.893 51.9093C74.8738 49.2591 77.2318 43.3327 76.2093 41.8929Z" fill="white"/>
</svg>
