<svg width="311" height="64" viewBox="0 0 311 64" fill="none" xmlns="http://www.w3.org/2000/svg">
<g clip-path="url(#clip0_792_118)">
<path d="M26.0575 57.979V47.8703C36.8507 47.8703 45.1764 37.3035 41.0151 26.1218C40.2579 24.0464 39.0506 22.1616 37.4787 20.6007C35.9068 19.0399 34.0086 17.8411 31.9185 17.0892C29.4927 16.1834 26.8823 15.8733 24.3097 16.1851C21.7372 16.4969 19.2786 17.4216 17.1434 18.8802C15.0083 20.3388 13.2598 22.2883 12.0468 24.5625C10.8339 26.8367 10.1924 29.3683 10.1771 31.9417H0C0 15.0939 16.4995 1.76936 34.5379 7.28487C38.4143 8.49393 41.9391 10.6154 44.8119 13.4686C47.6847 16.3217 49.8205 19.8221 51.0374 23.6715C56.5889 41.5923 43.1731 57.979 26.0575 57.979Z" fill="white"/>
<path d="M26.212 47.8703H16.0348V37.9153H26.212M16.0348 55.6824H8.32534V47.8703H16.0348V55.6824ZM8.32534 47.8703H1.85742V41.4386H8.32534M92.978 21.0675C90.049 19.0752 86.1943 17.993 81.8751 17.993H72.472V47.858H81.8782C86.1964 47.858 89.8973 46.786 92.9811 44.6421C94.6654 43.4254 95.9954 41.7876 96.8359 39.8952C97.7647 37.903 98.2229 35.4527 98.2229 32.8486C98.2229 30.2446 97.7616 27.7943 96.8359 25.9558C95.907 23.6715 94.6747 22.1404 92.978 21.0675ZM78.0235 23.0597H80.9524C84.1911 23.0597 86.9652 23.6746 89.1233 25.0519C91.4361 26.4293 92.5291 29.0487 92.5291 32.864C92.5291 36.6794 91.2906 39.4494 89.1233 40.9805C87.12 42.2103 84.4976 42.9727 81.1042 42.9727H78.0235V23.0597ZM104.852 17.5473C104.423 17.5359 103.997 17.6119 103.599 17.7705C103.201 17.9291 102.841 18.1671 102.539 18.4696C102.188 18.7392 101.906 19.0883 101.718 19.4878C101.53 19.8873 101.441 20.3256 101.458 20.7662C101.458 21.6191 101.8 22.437 102.407 23.0401C103.014 23.6432 103.838 23.982 104.697 23.982C105.556 23.982 106.38 23.6432 106.987 23.0401C107.594 22.437 107.936 21.6191 107.936 20.7662C107.947 20.3407 107.87 19.9174 107.711 19.5224C107.551 19.1275 107.311 18.7691 107.007 18.4696C106.545 17.8547 105.768 17.5473 104.839 17.5473M102.053 26.7367H107.45V47.7196H102.075V26.7367M126.745 28.5813C125.197 27.204 123.339 26.2848 121.348 26.2848C119.989 26.255 118.64 26.5139 117.39 27.0442C116.14 27.5744 115.018 28.3637 114.1 29.3592C112.174 31.3849 111.123 34.0784 111.171 36.8638C111.171 39.7753 112.1 42.3763 113.958 44.3685C115.815 46.3607 118.274 47.28 121.206 47.28C123.093 47.3094 124.936 46.7169 126.448 45.5952V46.0533C126.448 47.7381 125.986 49.1277 125.061 50.05C124.135 50.9724 122.893 51.4274 121.206 51.4274C118.729 51.4274 117.196 50.505 115.348 47.9041L111.632 51.4274L111.787 51.5811C112.558 52.6541 113.791 53.7332 115.332 54.7969C116.874 55.8607 118.878 56.3341 121.19 56.3341C124.429 56.3341 126.897 55.4118 128.745 53.4227C130.594 51.4335 131.674 48.9801 131.674 45.7643V26.7367H126.438V28.5813H126.748M125.361 40.9866C124.432 42.0596 123.194 42.5238 121.646 42.5238C120.097 42.5238 118.859 42.0658 117.93 40.9866C117.001 39.9075 116.543 38.5271 116.543 36.8515C116.543 35.176 117.035 33.7802 117.964 32.7072C118.893 31.6342 120.132 31.17 121.68 31.17C123.228 31.17 124.466 31.6281 125.395 32.7072C126.324 33.7863 126.782 35.1668 126.782 36.8423C126.782 38.5179 126.321 39.9167 125.395 40.9774M136.65 26.7336H142.046V47.7165H136.616V26.7367M139.238 17.5473C138.81 17.5367 138.384 17.6127 137.986 17.7706C137.589 17.9284 137.227 18.1649 136.924 18.4657C136.621 18.7664 136.383 19.1251 136.224 19.5201C136.065 19.915 135.989 20.3379 135.999 20.7631C135.999 21.616 136.341 22.434 136.948 23.037C137.555 23.6401 138.379 23.9789 139.238 23.9789C140.097 23.9789 140.921 23.6401 141.528 23.037C142.135 22.434 142.477 21.616 142.477 20.7631C142.487 20.3376 142.411 19.9145 142.252 19.5193C142.092 19.1242 141.854 18.7653 141.551 18.4645C141.247 18.1637 140.886 17.9273 140.488 17.7696C140.09 17.6119 139.663 17.5363 139.235 17.5473M153.57 21.0675H148.335V26.7367H145.238V31.4836H148.335V40.215C148.335 42.9819 148.954 44.9619 150.031 46.0348C151.109 47.1078 153.128 47.7196 155.738 47.7196C156.615 47.7449 157.492 47.6934 158.36 47.5659H158.67V42.8159L156.812 42.9696C155.574 42.9696 154.645 42.8159 154.335 42.3548C153.874 41.8967 153.716 40.9774 153.716 39.5878V31.6373H158.651V26.8873H153.731L153.57 21.0675ZM183.482 17.993H188.879V47.858H183.489V18.0115M242.7 40.3717C241.912 41.2773 241.033 42.1013 240.078 42.8313C239.238 43.3369 238.273 43.6018 237.291 43.5968C236.568 43.5906 235.854 43.4364 235.193 43.1438C234.532 42.8513 233.94 42.4268 233.452 41.8967C232.371 40.6669 231.904 39.2926 231.904 37.4541C231.904 35.6156 232.365 34.2383 233.452 33.0116C233.92 32.4548 234.512 32.013 235.18 31.7208C235.849 31.4285 236.577 31.2937 237.306 31.3268C239.003 31.3268 240.852 32.3998 242.393 34.2383L245.939 30.8564C243.626 27.9449 240.697 26.5676 237.149 26.5676C234.22 26.5676 231.752 27.6406 229.594 29.7834C227.574 31.8863 226.463 34.69 226.498 37.5955C226.498 40.67 227.578 43.4154 229.594 45.4076C230.553 46.4432 231.722 47.2651 233.024 47.8194C234.326 48.3737 235.732 48.6478 237.149 48.6235C241.003 48.6235 244.087 46.9387 246.245 43.8766L242.7 40.3533M264.441 29.7865C263.63 28.7252 262.566 27.8801 261.345 27.327C259.946 26.6834 258.416 26.3678 256.874 26.4047C253.945 26.4047 251.478 27.4776 249.626 29.6205C247.874 31.8479 246.948 34.6067 247.004 37.4326C247.004 40.6484 247.933 43.2525 249.933 45.2447C251.933 47.2369 254.404 48.3191 257.642 48.3191C261.187 48.3191 264.119 46.9418 266.432 44.0303L266.587 43.8766L263.042 40.4947C262.732 40.9528 262.271 41.2603 261.803 41.7245C261.366 42.1824 260.839 42.5475 260.255 42.7975C259.453 43.2338 258.547 43.4463 257.633 43.4124C256.29 43.4316 254.98 42.9981 253.917 42.1826C252.989 41.4171 252.53 40.3379 252.369 38.9667H266.556V36.9745C266.591 35.6163 266.381 34.2629 265.937 32.9778C265.711 31.7903 265.178 30.6819 264.389 29.7619M252.877 34.6994C253.113 33.7725 253.592 32.924 254.264 32.2399C254.629 31.8792 255.064 31.5976 255.544 31.4129C256.024 31.2282 256.537 31.1445 257.051 31.1669C258.289 31.1669 259.364 31.4744 259.98 32.2399C260.599 32.8548 260.909 33.7771 261.06 34.6994H252.877ZM284.951 28.4184C283.402 27.0411 281.096 26.4262 278.322 26.4262C276.625 26.4739 274.953 26.839 273.392 27.5022C272.005 28.2678 270.606 29.3469 269.847 30.8841L273.253 34.0999C274.64 31.8033 276.182 31.0255 278.34 31.0255C279.349 30.999 280.336 31.3254 281.127 31.9478C281.478 32.2175 281.759 32.5666 281.947 32.966C282.135 33.3655 282.224 33.8038 282.207 34.2444V35.3174C280.966 34.9014 279.663 34.6936 278.353 34.7025C275.731 34.7025 273.572 35.3174 271.875 36.5472C270.179 37.7769 269.398 39.6216 269.398 41.7552C269.398 43.7475 270.018 45.2785 271.402 46.5021C272.786 47.7258 274.498 48.1869 276.489 48.1869C278.479 48.1869 280.343 47.4214 282.195 46.0348V47.7196H287.437V34.2414C287.437 31.7818 286.666 29.7988 284.96 28.4215M275.554 39.7538C276.173 39.2957 276.941 39.1389 278.031 39.1389C279.399 39.1847 280.752 39.443 282.04 39.9044V41.8967C280.764 43.0117 279.114 43.6127 277.414 43.5814C276.486 43.5814 275.718 43.4277 275.247 42.9666C274.776 42.5054 274.476 42.0442 274.476 41.4293C274.531 41.0901 274.655 40.7655 274.841 40.4757C275.026 40.1859 275.27 39.9371 275.557 39.7446M307.924 28.7258C306.376 27.0411 304.379 26.2663 301.757 26.2663C299.598 26.2663 297.902 26.8812 296.67 28.111V26.8812H291.425V47.8641H296.821V36.2305C296.821 34.6933 297.131 33.319 297.902 32.4029C298.279 31.9556 298.754 31.5992 299.29 31.3606C299.827 31.122 300.411 31.0074 300.998 31.0255C301.527 30.9999 302.055 31.0978 302.539 31.3114C303.022 31.525 303.449 31.8483 303.785 32.2553C304.509 33.2343 304.888 34.4226 304.865 35.6371V47.8887H310.237V35.6187C310.082 32.7082 309.311 30.4106 307.924 28.7258ZM176.86 28.4184C175.312 27.0411 173.005 26.4262 170.231 26.4262C168.532 26.4722 166.858 26.8362 165.296 27.4992C163.908 28.2647 162.509 29.3438 161.75 30.881L165.156 34.0969C166.543 31.8003 168.085 31.0224 170.243 31.0224C171.252 30.9959 172.239 31.3223 173.03 31.9448C173.381 32.2144 173.663 32.5635 173.85 32.963C174.038 33.3624 174.128 33.8008 174.11 34.2414V35.3143C172.869 34.8984 171.566 34.6906 170.256 34.6994C167.634 34.6994 165.475 35.3143 163.778 36.5441C162.082 37.7739 161.301 39.6185 161.301 41.7522C161.301 43.7444 161.921 45.2755 163.305 46.4991C164.689 47.7227 166.401 48.1839 168.392 48.1839C170.383 48.1839 172.246 47.4183 174.098 46.0318V47.7165H179.34V34.2414C179.34 31.7818 178.411 29.7988 176.863 28.4215M167.302 39.7538C167.921 39.2957 168.689 39.1389 169.779 39.1389C171.147 39.1847 172.5 39.443 173.788 39.9044V41.8967C172.512 43.0117 170.862 43.6127 169.163 43.5814C168.234 43.5814 167.466 43.4277 166.995 42.9666C166.525 42.5054 166.224 42.0442 166.224 41.4293C166.455 40.7954 166.824 40.22 167.305 39.7446M208.174 48.3222C205.123 48.3234 202.141 47.4261 199.603 45.7438C197.066 44.0616 195.088 41.6698 193.919 38.8712C192.751 36.0725 192.444 32.9926 193.039 30.0211C193.633 27.0495 195.102 24.3197 197.259 22.177C199.416 20.0343 202.164 18.5749 205.157 17.9834C208.149 17.3919 211.251 17.6949 214.07 18.854C216.889 20.0131 219.298 21.9763 220.993 24.4953C222.689 27.0142 223.593 29.9758 223.593 33.0054C223.579 37.0621 221.95 40.9486 219.062 43.8178C216.173 46.6869 212.26 48.306 208.174 48.3222ZM208.174 22.8998C206.191 22.8968 204.252 23.4779 202.601 24.5696C200.951 25.6614 199.663 27.2147 198.902 29.0331C198.14 30.8515 197.939 32.8533 198.324 34.7852C198.708 36.7171 199.661 38.4924 201.062 39.8864C202.463 41.2804 204.249 42.2305 206.194 42.6166C208.138 43.0026 210.155 42.8073 211.988 42.0552C213.821 41.3031 215.388 40.0282 216.491 38.3915C217.594 36.7549 218.183 34.8302 218.184 32.8609C218.187 31.5531 217.93 30.2576 217.427 29.0487C216.925 27.8398 216.187 26.7414 215.256 25.8165C214.324 24.8915 213.218 24.1583 212.001 23.6589C210.784 23.1594 209.479 22.9035 208.162 22.906" fill="white"/>
</g>
<defs>
<clipPath id="clip0_792_118">
<rect width="310.237" height="52" fill="white" transform="translate(0 6)"/>
</clipPath>
</defs>
</svg>
