<svg width="293" height="64" viewBox="0 0 293 64" fill="none" xmlns="http://www.w3.org/2000/svg">
<g clip-path="url(#clip0_792_3219)">
<path d="M36.0102 21.4368H37.6506L42.3258 16.7615L42.5555 14.7766C39.8772 12.4127 36.6405 10.7705 33.1512 10.0053C29.6618 9.24008 26.0349 9.37703 22.6132 10.4032C19.1915 11.4294 16.0878 13.311 13.5955 15.8701C11.1031 18.4293 9.30427 21.5816 8.36893 25.0293C8.88977 24.8158 9.46673 24.7812 10.0094 24.9309L19.3598 23.3889C19.3598 23.3889 19.8355 22.6015 20.0816 22.6507C22.0851 20.4503 24.8539 19.099 27.8212 18.8733C30.7885 18.6476 33.7298 19.5647 36.043 21.4368H36.0102Z" fill="#FBFBFB"/>
<path d="M48.9859 25.0293C47.9113 21.072 45.7049 17.5144 42.6375 14.793L36.0757 21.3548C37.4433 22.4722 38.5392 23.8855 39.2809 25.4882C40.0225 27.0909 40.3906 28.8411 40.3573 30.6068V31.7715C41.1242 31.7715 41.8836 31.9225 42.5921 32.216C43.3006 32.5095 43.9444 32.9397 44.4867 33.482C45.029 34.0243 45.4592 34.668 45.7526 35.3766C46.0461 36.0851 46.1972 36.8445 46.1972 37.6114C46.1972 38.3783 46.0461 39.1377 45.7526 39.8463C45.4592 40.5548 45.029 41.1986 44.4867 41.7409C43.9444 42.2832 43.3006 42.7133 42.5921 43.0068C41.8836 43.3003 41.1242 43.4514 40.3573 43.4514H28.6774L27.5127 44.6325V51.6371L28.6774 52.8018H40.3573C43.6188 52.8272 46.8019 51.8021 49.4357 49.8782C52.0695 47.9543 54.0142 45.2337 54.9819 42.1189C55.9496 39.0041 55.8891 35.6605 54.8093 32.5828C53.7294 29.5051 51.6876 26.8567 48.9859 25.0293Z" fill="#5F5F5F"/>
<path d="M16.981 52.7362H28.6609V43.3857H16.981C16.1488 43.3855 15.3265 43.2065 14.5695 42.8608L12.9291 43.3693L8.22108 48.0445L7.81097 49.685C10.4511 51.6786 13.6727 52.7505 16.981 52.7362Z" fill="#7D7D7D"/>
<path d="M16.9809 22.4046C13.8162 22.4235 10.7365 23.4304 8.1718 25.2846C5.60712 27.1388 3.68559 29.7477 2.6756 32.7469C1.66561 35.7462 1.6176 38.986 2.53827 42.0139C3.45893 45.0417 5.3023 47.7064 7.81091 49.6358L14.5859 42.8608C13.7249 42.4718 12.9712 41.8798 12.3894 41.1355C11.8075 40.3911 11.4149 39.5168 11.2453 38.5874C11.0757 37.658 11.1341 36.7013 11.4155 35.7994C11.6969 34.8976 12.1928 34.0774 12.8609 33.4094C13.5289 32.7413 14.3491 32.2453 15.2509 31.964C16.1528 31.6826 17.1095 31.6242 18.0389 31.7938C18.9683 31.9634 19.8427 32.356 20.587 32.9378C21.3313 33.5197 21.9233 34.2734 22.3123 35.1344L29.0873 28.3594C27.6653 26.5004 25.8325 24.9955 23.7323 23.9625C21.6321 22.9295 19.3214 22.3963 16.9809 22.4046Z" fill="#A7A7A7"/>
<path d="M86.7651 46.2073C84.7542 46.2329 82.7588 45.8524 80.8984 45.0885C79.038 44.3246 77.351 43.1931 75.9383 41.7617C74.4811 40.3911 73.3247 38.7325 72.5425 36.8913C71.7603 35.0501 71.3693 33.0664 71.3943 31.0661C71.3703 29.0659 71.7617 27.0825 72.5439 25.2415C73.3261 23.4004 74.4819 21.7417 75.9383 20.3705C77.344 18.9243 79.028 17.7776 80.8887 16.9995C82.7494 16.2214 84.7483 15.8279 86.7651 15.8429C88.6868 15.8173 90.5944 16.1739 92.377 16.892C94.1597 17.6102 95.7818 18.6755 97.1491 20.026L94.2291 22.9952C92.2294 21.0627 89.5457 20.001 86.7651 20.0424C85.3227 20.0247 83.8924 20.3072 82.5651 20.872C81.2378 21.4369 80.0424 22.2716 79.0551 23.3233C78.029 24.3413 77.2195 25.5564 76.6753 26.8956C76.1312 28.2347 75.8638 29.6701 75.8891 31.1153C75.877 32.5441 76.1509 33.9608 76.6947 35.282C77.2384 36.6033 78.041 37.8025 79.0551 38.8089C81.0865 40.8334 83.8279 41.985 86.6957 42.0187C89.5634 42.0524 92.3311 40.9655 94.4095 38.9894C95.6963 37.5802 96.4857 35.7882 96.6569 33.8876H86.8143V29.6881H100.742C100.878 30.5339 100.933 31.3909 100.906 32.2472C100.992 34.0195 100.719 35.791 100.101 37.4546C99.4836 39.1181 98.5351 40.6392 97.3131 41.9258C95.9544 43.3404 94.3128 44.4528 92.4954 45.1905C90.6779 45.9282 88.7254 46.2747 86.7651 46.2073ZM119.147 43.4185C117.278 45.2102 114.789 46.2105 112.2 46.2105C109.611 46.2105 107.122 45.2102 105.253 43.4185C104.322 42.5165 103.59 41.431 103.101 40.2308C102.613 39.0306 102.379 37.742 102.415 36.4467C102.38 35.1515 102.614 33.8632 103.103 32.6632C103.591 31.4632 104.323 30.3775 105.253 29.4749C107.124 27.687 109.612 26.6893 112.2 26.6893C114.788 26.6893 117.276 27.687 119.147 29.4749C120.077 30.3775 120.809 31.4632 121.297 32.6632C121.786 33.8632 122.02 35.1515 121.985 36.4467C122.019 37.7432 121.783 39.0326 121.291 40.2328C120.8 41.4331 120.064 42.518 119.131 43.4185H119.147ZM108.32 40.679C108.818 41.2099 109.418 41.6332 110.086 41.9225C110.753 42.2119 111.473 42.3612 112.2 42.3612C112.927 42.3612 113.647 42.2119 114.314 41.9225C114.982 41.6332 115.582 41.2099 116.08 40.679C116.622 40.1188 117.046 39.4557 117.328 38.7288C117.61 38.0019 117.743 37.226 117.72 36.4467C117.744 35.6649 117.612 34.8861 117.33 34.1564C117.048 33.4266 116.623 32.7607 116.08 32.198C115.576 31.6725 114.971 31.2544 114.301 30.9687C113.632 30.683 112.912 30.5358 112.184 30.5358C111.456 30.5358 110.735 30.683 110.066 30.9687C109.396 31.2544 108.791 31.6725 108.288 32.198C107.744 32.7607 107.319 33.4266 107.037 34.1564C106.756 34.8861 106.623 35.6649 106.647 36.4467C106.626 37.2271 106.762 38.0037 107.047 38.7307C107.332 39.4576 107.759 40.1201 108.304 40.679H108.32ZM140.506 43.4185C138.637 45.2102 136.148 46.2105 133.558 46.2105C130.969 46.2105 128.48 45.2102 126.611 43.4185C125.681 42.5165 124.948 41.431 124.46 40.2308C123.971 39.0306 123.737 37.742 123.773 36.4467C123.738 35.1515 123.973 33.8632 124.461 32.6632C124.95 31.4632 125.682 30.3775 126.611 29.4749C128.48 27.6832 130.969 26.683 133.558 26.683C136.148 26.683 138.637 27.6832 140.506 29.4749C141.435 30.3775 142.167 31.4632 142.656 32.6632C143.144 33.8632 143.378 35.1515 143.344 36.4467C143.379 37.742 143.146 39.0306 142.657 40.2308C142.169 41.431 141.436 42.5165 140.506 43.4185ZM129.679 40.679C130.176 41.2099 130.777 41.6332 131.444 41.9225C132.111 42.2119 132.831 42.3612 133.558 42.3612C134.286 42.3612 135.005 42.2119 135.673 41.9225C136.34 41.6332 136.941 41.2099 137.438 40.679C137.98 40.1188 138.405 39.4557 138.686 38.7288C138.968 38.0019 139.101 37.226 139.078 36.4467C139.103 35.6649 138.97 34.8861 138.688 34.1564C138.406 33.4266 137.981 32.7607 137.438 32.198C136.934 31.6725 136.329 31.2544 135.66 30.9687C134.99 30.683 134.27 30.5358 133.542 30.5358C132.814 30.5358 132.094 30.683 131.424 30.9687C130.755 31.2544 130.15 31.6725 129.646 32.198C129.103 32.7607 128.678 33.4266 128.396 34.1564C128.114 34.8861 127.981 35.6649 128.006 36.4467C127.985 37.2271 128.121 38.0037 128.405 38.7307C128.69 39.4576 129.117 40.1201 129.662 40.679H129.679ZM154.548 54.9672C152.582 55.0297 150.653 54.4159 149.085 53.2283C147.693 52.1815 146.596 50.791 145.903 49.1929L149.643 47.6345C150.05 48.5895 150.687 49.4292 151.497 50.0787C152.363 50.7775 153.451 51.144 154.564 51.1122C155.27 51.1551 155.977 51.0455 156.636 50.7907C157.296 50.5359 157.893 50.142 158.386 49.6358C159.375 48.4436 159.863 46.9149 159.748 45.3707V43.9599H159.6C158.975 44.7024 158.186 45.289 157.294 45.6734C156.403 46.0578 155.435 46.2294 154.466 46.1745C153.234 46.1782 152.015 45.9265 150.886 45.4352C149.756 44.9439 148.741 44.2237 147.904 43.3201C146.996 42.4238 146.279 41.3524 145.797 40.171C145.315 38.9896 145.077 37.7226 145.099 36.4467C145.076 35.1634 145.313 33.8887 145.795 32.6992C146.277 31.5096 146.994 30.4296 147.904 29.5241C148.739 28.6168 149.753 27.893 150.883 27.3988C152.013 26.9046 153.233 26.6507 154.466 26.6533C155.509 26.6515 156.54 26.8812 157.484 27.3259C158.301 27.6825 159.029 28.2146 159.617 28.8843H159.764V27.3259H163.833V44.7965C163.94 46.1785 163.764 47.5679 163.315 48.8795C162.867 50.1911 162.155 51.3974 161.224 52.4245C160.338 53.2728 159.29 53.9348 158.143 54.3715C156.997 54.8082 155.774 55.0107 154.548 54.9672ZM154.843 42.3687C155.543 42.3841 156.239 42.2451 156.879 41.9616C157.52 41.6781 158.091 41.257 158.55 40.7282C159.563 39.5684 160.096 38.0672 160.043 36.5287C160.104 34.9643 159.571 33.4348 158.55 32.2472C158.091 31.7176 157.521 31.2959 156.88 31.0123C156.239 30.7287 155.544 30.5902 154.843 30.6068C154.123 30.592 153.409 30.7307 152.747 31.0135C152.085 31.2964 151.491 31.7169 151.004 32.2472C149.919 33.3921 149.33 34.9189 149.364 36.4959C149.347 37.2695 149.484 38.0387 149.765 38.7594C150.047 39.4801 150.468 40.138 151.004 40.6954C151.489 41.2308 152.082 41.657 152.743 41.9455C153.405 42.234 154.121 42.3783 154.843 42.3687ZM171.067 16.942V45.6167H166.785V16.942H171.067ZM182.812 46.2073C181.53 46.2402 180.255 46.0081 179.067 45.5254C177.878 45.0427 176.802 44.3199 175.906 43.4021C174.997 42.4911 174.282 41.4048 173.806 40.2091C173.329 39.0135 173.101 37.7334 173.134 36.4467C173.085 35.1568 173.297 33.8704 173.756 32.6642C174.216 31.4579 174.913 30.3565 175.808 29.4257C176.65 28.5373 177.669 27.8348 178.799 27.363C179.929 26.8913 181.145 26.6607 182.369 26.6861C183.495 26.6743 184.612 26.8919 185.65 27.3259C186.586 27.7036 187.439 28.2609 188.16 28.9663C188.78 29.5644 189.33 30.2302 189.801 30.9513C190.181 31.5601 190.505 32.2025 190.768 32.8706L191.211 33.9861L178.088 39.3831C178.485 40.295 179.149 41.0653 179.992 41.5924C180.835 42.1195 181.819 42.3787 182.812 42.3359C183.779 42.3385 184.73 42.0905 185.572 41.6162C186.415 41.1418 187.12 40.4572 187.619 39.6292L190.9 41.8437C190.062 43.0416 188.991 44.0573 187.75 44.8293C186.274 45.7617 184.558 46.2408 182.812 46.2073ZM177.333 36.1514L186.06 32.5261C185.792 31.8869 185.311 31.3597 184.699 31.0333C184.014 30.6464 183.238 30.4483 182.451 30.4591C181.116 30.4937 179.849 31.0538 178.925 32.0176C178.371 32.5469 177.942 33.192 177.667 33.9066C177.392 34.6212 177.278 35.3877 177.333 36.1514ZM213.636 46.2073C211.815 46.2387 210.007 45.9019 208.319 45.217C206.632 44.5321 205.1 43.5133 203.816 42.2217C202.532 40.9302 201.523 39.3925 200.848 37.701C200.173 36.0095 199.847 34.1991 199.889 32.3784C199.847 30.5578 200.173 28.7474 200.848 27.0559C201.523 25.3644 202.532 23.8267 203.816 22.5352C205.1 21.2436 206.632 20.2248 208.319 19.5399C210.007 18.855 211.815 18.5182 213.636 18.5496C215.479 18.492 217.311 18.8516 218.996 19.6015C220.68 20.3514 222.173 21.4723 223.364 22.8804L221.002 25.177C220.128 24.0777 219.007 23.2002 217.73 22.6159C216.453 22.0315 215.056 21.7568 213.652 21.8141C212.302 21.7836 210.959 22.0266 209.704 22.5284C208.45 23.0302 207.31 23.7804 206.353 24.734C205.357 25.7347 204.58 26.9304 204.069 28.2459C203.558 29.5614 203.325 30.9684 203.383 32.3784C203.325 33.7885 203.558 35.1955 204.069 36.511C204.58 37.8265 205.357 39.0222 206.353 40.0229C207.31 40.9765 208.45 41.7267 209.704 42.2285C210.959 42.7303 212.302 42.9733 213.652 42.9428C215.22 42.9604 216.772 42.6244 218.192 41.9598C219.612 41.2953 220.864 40.3192 221.855 39.1042L224.217 41.4664C222.98 42.9454 221.427 44.1282 219.673 44.9277C217.782 45.8008 215.719 46.2381 213.636 46.2073ZM230.565 45.6167H227.17V19.1238H230.565V45.6167ZM236.11 29.6717C237.889 27.9047 240.295 26.9129 242.803 26.9129C245.311 26.9129 247.717 27.9047 249.496 29.6717C250.366 30.5904 251.046 31.6721 251.496 32.8545C251.947 34.037 252.159 35.2968 252.121 36.5615C252.159 37.8263 251.947 39.0861 251.496 40.2686C251.046 41.451 250.366 42.5327 249.496 43.4514C247.717 45.2184 245.311 46.2102 242.803 46.2102C240.295 46.2102 237.889 45.2184 236.11 43.4514C235.24 42.5327 234.56 41.451 234.11 40.2686C233.659 39.0861 233.447 37.8263 233.485 36.5615C233.447 35.2968 233.659 34.037 234.11 32.8545C234.56 31.6721 235.24 30.5904 236.11 29.6717ZM238.636 41.3188C239.171 41.8842 239.816 42.3346 240.531 42.6424C241.246 42.9502 242.016 43.109 242.795 43.109C243.573 43.109 244.343 42.9502 245.058 42.6424C245.773 42.3346 246.418 41.8842 246.953 41.3188C247.547 40.6819 248.008 39.9333 248.309 39.1166C248.61 38.2998 248.746 37.4313 248.708 36.5615C248.746 35.6918 248.61 34.8233 248.309 34.0065C248.008 33.1898 247.547 32.4412 246.953 31.8043C246.418 31.2389 245.773 30.7885 245.058 30.4807C244.343 30.1729 243.573 30.0141 242.795 30.0141C242.016 30.0141 241.246 30.1729 240.531 30.4807C239.816 30.7885 239.171 31.2389 238.636 31.8043C238.043 32.4412 237.582 33.1898 237.28 34.0065C236.979 34.8233 236.843 35.6918 236.881 36.5615C236.848 37.4297 236.987 38.2958 237.291 39.1097C237.595 39.9235 238.058 40.6688 238.653 41.3024L238.636 41.3188ZM270.936 45.6167H267.655V43.1069H267.557C266.973 44.0601 266.147 44.8413 265.162 45.3707C264.14 45.9628 262.98 46.2741 261.799 46.2729C260.84 46.3385 259.879 46.1867 258.987 45.8288C258.095 45.4709 257.296 44.9161 256.648 44.206C255.405 42.6342 254.781 40.6619 254.893 38.6613V27.5064H258.289V38.0379C258.289 41.4172 259.781 43.1069 262.767 43.1069C263.43 43.1276 264.089 42.9895 264.688 42.7041C265.287 42.4188 265.81 41.9945 266.212 41.4664C267.092 40.351 267.561 38.9665 267.541 37.5458V27.5064H270.936V45.6167ZM282.469 46.2073C281.317 46.2111 280.178 45.9653 279.13 45.4867C278.082 45.0081 277.15 44.3081 276.399 43.435C274.698 41.5565 273.787 39.0946 273.856 36.5615C273.787 34.0285 274.698 31.5666 276.399 29.6881C277.15 28.815 278.082 28.115 279.13 27.6364C280.178 27.1578 281.317 26.912 282.469 26.9158C283.759 26.8954 285.034 27.2001 286.176 27.8016C287.179 28.3066 288.029 29.0713 288.637 30.0162H288.784L288.637 27.5064V19.1238H292.032V45.6167H288.751V43.1069H288.604C287.996 44.0518 287.147 44.8165 286.143 45.3214C285.011 45.9177 283.748 46.2222 282.469 46.2073ZM283.026 43.1069C283.794 43.118 284.555 42.9659 285.259 42.6604C285.963 42.355 286.595 41.9032 287.111 41.3352C288.264 40.0218 288.854 38.3066 288.751 36.5615C288.854 34.8165 288.264 33.1013 287.111 31.7879C286.591 31.2168 285.958 30.7605 285.252 30.4483C284.546 30.136 283.782 29.9748 283.01 29.9748C282.238 29.9748 281.474 30.136 280.768 30.4483C280.062 30.7605 279.428 31.2168 278.909 31.7879C278.336 32.4339 277.896 33.1867 277.614 34.003C277.333 34.8194 277.215 35.6833 277.268 36.5451C277.215 37.407 277.333 38.2709 277.614 39.0873C277.896 39.9036 278.336 40.6564 278.909 41.3024C279.426 41.8806 280.061 42.3409 280.771 42.6523C281.482 42.9636 282.251 43.1186 283.026 43.1069Z" fill="white"/>
</g>
<defs>
<clipPath id="clip0_792_3219">
<rect width="292.032" height="51.164" fill="white" transform="translate(0 6)"/>
</clipPath>
</defs>
</svg>
