<svg width="156" height="64" viewBox="0 0 156 64" fill="none" xmlns="http://www.w3.org/2000/svg">
<g clip-path="url(#clip0_792_3227)">
<path fill-rule="evenodd" clip-rule="evenodd" d="M76.8854 24.5769H73.1153V26.351C73.1153 27.6261 72.4222 28.5964 70.9807 28.5964H70.2877V32.2833H72.7271V38.1878C72.7271 40.9322 74.4736 42.6231 77.329 42.6231C78.6595 42.6231 79.3527 42.3182 79.519 42.235V38.7422C79.2695 38.7976 78.8537 38.8808 78.4102 38.8808C77.4953 38.8808 76.8854 38.5759 76.8854 37.4394V32.2833H79.5744V28.5964H76.8854V24.5769ZM85.6177 33.8357H91.1343C91.0789 32.7823 90.358 31.5072 88.362 31.5072C86.5879 31.5072 85.7007 32.81 85.6177 33.8357ZM91.4393 37.4116L94.9599 38.4096C94.2946 40.7936 92.1046 42.7894 88.6117 42.7894C84.8138 42.7894 81.4317 40.0729 81.4317 35.4434C81.4317 31.0082 84.7307 28.1806 88.3068 28.1806C92.5758 28.1806 95.2094 30.814 95.2094 35.2495C95.2094 35.8316 95.1541 36.4692 95.1262 36.5523H85.5346C85.6177 38.1046 87.0316 39.2134 88.6671 39.2134C90.1919 39.2134 91.0512 38.4927 91.4393 37.4116ZM106.686 28.5965C106.409 28.5133 105.993 28.4579 105.577 28.4579C104.468 28.4579 102.722 28.9014 102.001 30.4537V28.5965H97.926V42.3737H102.14V36.3583C102.14 33.6139 103.664 32.616 105.355 32.616C105.771 32.616 106.215 32.6437 106.686 32.7546V28.5965ZM113.312 42.3736V34.4455C113.312 33.1981 114.116 32.0616 115.585 32.0616C117.11 32.0616 117.803 33.0872 117.803 34.39V42.3736H121.961V34.4178C121.961 33.1981 122.765 32.0616 124.262 32.0616C125.759 32.0616 126.452 33.0872 126.452 34.39V42.3736H130.527V33.4476C130.527 29.7052 128.032 28.1806 125.426 28.1806C123.569 28.1806 122.238 28.7905 121.157 30.3428C120.464 28.9845 119.05 28.1806 117.082 28.1806C115.585 28.1806 113.811 28.9568 113.118 30.1765V28.5964H109.098V42.3736H113.312ZM138.289 42.3737V28.5965H134.075V42.3737H138.289ZM133.715 24.3829C133.715 25.7412 134.824 26.8501 136.154 26.8501C137.541 26.8501 138.649 25.7412 138.649 24.3829C138.649 23.0246 137.541 21.9158 136.154 21.9158C134.824 21.9158 133.715 23.0246 133.715 24.3829ZM150.875 42.3737H154.922C154.894 42.1519 154.784 41.154 154.784 39.9066V28.5965H150.57V36.4415C150.57 37.8275 149.683 38.7978 148.269 38.7978C146.772 38.7978 146.051 37.7443 146.051 36.4137V28.5965H141.837V37.3008C141.837 40.2392 143.723 42.6786 147.077 42.6786C148.463 42.6786 150.043 42.1796 150.764 40.9877C150.764 41.348 150.819 42.1242 150.875 42.3737ZM157.361 38.465C157.472 39.9897 158.859 42.7896 163.184 42.7896C166.871 42.7896 168.672 40.4887 168.672 38.1324C168.672 36.1088 167.286 34.3902 164.431 33.8079L162.601 33.4476C161.992 33.3367 161.519 33.0041 161.519 32.4219C161.519 31.7012 162.213 31.23 163.016 31.23C164.293 31.23 164.874 32.0061 164.985 32.9209L168.478 32.2833C168.339 30.6756 166.953 28.1807 162.961 28.1807C159.884 28.1807 157.667 30.2319 157.667 32.7546C157.667 34.6951 158.831 36.3583 161.769 36.9959L163.349 37.3562C164.375 37.578 164.708 37.9938 164.708 38.4927C164.708 39.1027 164.181 39.6848 163.099 39.6848C161.659 39.6848 160.993 38.7699 160.938 37.8275L157.361 38.465Z" fill="white"/>
<path fill-rule="evenodd" clip-rule="evenodd" d="M44.3903 49.8789C52.4945 49.8789 59.0846 43.2889 59.0846 35.185C59.0846 31.1503 57.3677 27.2253 54.4354 24.4642C54.3722 16.6547 48.0021 10.3238 40.1775 10.3238C37.9051 10.3238 35.6925 10.8591 33.6915 11.8837C31.0583 9.39682 27.5791 7.99994 23.909 7.99994C16.2533 7.99994 9.99019 14.0606 9.66445 21.6372C5.02347 24.2305 2.09767 29.1503 2.09767 34.5315C2.09767 42.6755 8.72025 49.298 16.8644 49.298C17.2501 49.298 17.636 49.2829 18.0206 49.253C20.7412 53.8298 25.7158 56.7054 31.0991 56.7054C36.2479 56.7054 40.9956 54.1184 43.7961 49.8668C43.9944 49.8749 44.1926 49.8789 44.3903 49.8789ZM31.0991 52.8279C26.7376 52.8279 22.7246 50.2834 20.8548 46.3345L20.2223 44.9985L18.7664 45.2548C18.1421 45.3648 17.5025 45.4203 16.8644 45.4203C10.8619 45.4203 5.97537 40.5339 5.97537 34.5315C5.97537 30.2472 8.49161 26.3577 12.3997 24.5974L13.6018 24.0561L13.5401 22.739C13.5326 22.579 13.5288 22.4174 13.5288 22.2576C13.5288 16.5357 18.187 11.8775 23.909 11.8775C26.9889 11.8775 29.8749 13.2227 31.8578 15.5812L32.9747 16.9097L34.4182 15.9462C36.1309 14.803 38.1164 14.2014 40.1775 14.2014C45.8996 14.2014 50.5582 18.8597 50.5582 24.5815C50.5582 24.7879 50.5518 24.9964 50.5393 25.2013L50.4788 26.1892L51.2436 26.8176C53.7235 28.8556 55.2069 31.9875 55.2069 35.185C55.2069 41.1474 50.3529 46.0013 44.3903 46.0013C43.9298 46.0013 43.463 45.9714 43.0025 45.9124L41.6871 45.7437L41.053 46.9084C39.0621 50.5657 35.2589 52.8279 31.0991 52.8279ZM38.4649 37.3153L38.5031 37.2991C39.0069 37.0822 39.1872 36.8917 39.1872 36.3664V35.7064C39.1872 35.1258 38.8527 34.7522 38.3075 34.7522H38.277L38.1673 34.7764C36.9476 35.2054 35.7481 35.4226 34.6025 35.4226C33.4615 35.4226 32.336 35.207 31.2569 34.7815L31.2243 34.7688L31.1022 34.7522C30.5572 34.7522 30.2227 35.1258 30.2227 35.7064V36.3664C30.2227 36.8607 30.4091 37.086 30.8438 37.2732C30.8675 37.2832 30.8794 37.2883 30.8912 37.2932C30.9032 37.2983 30.9151 37.3032 30.9388 37.3131C32.1186 37.8175 33.3531 38.0742 34.6044 38.0742C35.8517 38.0742 37.1481 37.8191 38.4649 37.3153ZM21.6508 31.8898C21.6508 31.3576 21.9269 31.0645 22.2971 30.9869L25.8614 30.0512L22.2886 29.1134C21.9182 29.0165 21.6508 28.724 21.6508 28.2124V27.0888C21.6508 26.5979 21.9457 26.3864 22.2829 26.3864C22.3919 26.3864 22.505 26.4101 22.6179 26.4526L28.9794 28.5106C29.4626 28.6717 29.7285 29.0596 29.7285 29.5914V30.5107C29.7285 31.0424 29.4629 31.4307 28.979 31.5919L22.6042 33.654C22.4964 33.6859 22.4003 33.7015 22.3069 33.7015C21.9075 33.7015 21.6508 33.4144 21.6508 32.9964V31.8898Z" fill="white"/>
</g>
<defs>
<clipPath id="clip0_792_3227">
<rect width="166.769" height="48.8531" fill="white" transform="translate(2 8)"/>
</clipPath>
</defs>
</svg>
