<svg width="199" height="64" viewBox="0 0 199 64" fill="none" xmlns="http://www.w3.org/2000/svg">
<g clip-path="url(#clip0_792_1432)">
<path d="M196.362 42.8122L191.414 34.1239C195.317 32.4218 197.131 27.8186 195.462 23.8371C194.258 20.9509 191.472 19.0712 188.396 19.0712H177.558C176.818 19.0712 176.208 19.678 176.208 20.4477V20.4625V43.5078C176.208 44.2775 176.818 44.8843 177.558 44.8843H178.457C179.212 44.8843 179.806 44.2627 179.806 43.5078V34.7455H187.714L193.097 44.1887C193.344 44.6179 193.794 44.8843 194.272 44.8843H195.186C195.941 44.8843 196.536 44.2627 196.536 43.5078C196.536 43.271 196.478 43.0194 196.347 42.8122H196.333H196.362ZM179.821 22.7566H188.411C190.659 22.7566 192.473 24.6068 192.473 26.901C192.473 29.1951 190.659 31.0453 188.411 31.0453H179.821V22.7418V22.7566Z" fill="white"/>
<path d="M168.532 19.0861H149.554C148.814 19.0861 148.205 19.6929 148.205 20.4626V20.4774V21.395C148.205 22.1499 148.8 22.7715 149.554 22.7715H149.569H157.244V43.5079C157.244 44.2775 157.853 44.8844 158.593 44.8844H159.493C160.248 44.8844 160.842 44.2627 160.842 43.5079V22.7715H168.518C169.272 22.7715 169.867 22.1499 169.867 21.395V20.4774C169.867 19.7077 169.258 19.1009 168.518 19.1009L168.532 19.0861Z" fill="white"/>
<path d="M148.655 41.1989H136.453V20.4626C136.453 19.7077 135.858 19.0861 135.104 19.0861H135.089H134.19C133.45 19.0861 132.84 19.6929 132.84 20.4626V20.4774V43.5227C132.84 44.2924 133.45 44.8992 134.19 44.8992H148.641C149.395 44.8992 149.99 44.2776 149.99 43.5227V42.605C149.99 41.8502 149.395 41.2285 148.641 41.2285H148.626L148.655 41.1989Z" fill="white"/>
<path d="M125.614 20.4626C125.614 19.7077 125.019 19.0861 124.264 19.0861H124.25H123.35C122.61 19.0861 122.001 19.6929 122.001 20.4626V20.4774V34.7604C122.001 38.5791 118.968 41.6726 115.225 41.6726C111.482 41.6726 108.449 38.5791 108.449 34.7604V20.4774C108.449 19.7077 107.84 19.1009 107.1 19.1009H106.2C105.46 19.1009 104.851 19.7077 104.851 20.4774V20.4922V34.7752C104.851 40.6365 109.508 45.3728 115.24 45.3728C120.985 45.3728 125.628 40.6217 125.628 34.7752V20.4922L125.614 20.4626Z" fill="white"/>
<path d="M98.0456 19.0861H97.1896C96.6382 19.0861 96.1304 19.4265 95.9272 19.9593L88.1067 39.9112L80.2861 19.9593C80.083 19.4265 79.5751 19.0861 79.0238 19.0861H78.1677C77.4132 19.0861 76.8184 19.7077 76.8184 20.4626C76.8184 20.6402 76.8474 20.8178 76.9199 20.9806L85.9593 44.0259C86.1624 44.5588 86.6702 44.8992 87.2216 44.8992H89.0353C89.5866 44.8992 90.0945 44.5588 90.2976 44.0259L99.3369 20.9806C99.6126 20.2701 99.2789 19.4709 98.5825 19.1897C98.4229 19.1305 98.2487 19.0861 98.0746 19.0861H98.0456Z" fill="white"/>
<path d="M18.8971 9.31736C18.4038 8.5181 17.5332 8.02966 16.6046 8.02966H2.71912C1.22465 8.02966 0.00585938 9.27296 0.00585938 10.7975C0.00585938 11.3155 0.150953 11.8335 0.426632 12.2776L3.25596 16.8807L21.7264 13.9353L18.8971 9.33216V9.31736Z" fill="#636161"/>
<path d="M21.7416 13.9205C21.2483 13.1212 20.3777 12.6328 19.4491 12.6328H5.5636C4.06913 12.6328 2.85034 13.8761 2.85034 15.4006C2.85034 15.9187 2.99544 16.4367 3.27111 16.8807L7.2612 23.334L25.7317 20.3886L21.7416 13.9353V13.9205Z" fill="#A3A0A0"/>
<path d="M7.26086 23.3191C6.98518 22.8751 6.84009 22.3718 6.84009 21.839C6.84009 20.3145 8.05888 19.0712 9.55334 19.0712H23.4388C24.3674 19.0712 25.238 19.5596 25.7313 20.3589L38.1514 40.4588C38.7027 41.3616 38.7027 42.5013 38.1514 43.4042L31.2159 54.6678C30.4179 55.9555 28.7493 56.3404 27.4724 55.5263C27.1242 55.3043 26.834 55.0083 26.6309 54.6678L7.26086 23.3043V23.3191Z" fill="white"/>
<path d="M42.2718 29.3433C43.0698 30.6458 44.7384 31.0306 46.0007 30.2314C46.349 30.0094 46.6537 29.6985 46.8713 29.3433L49.2363 25.4802L53.7923 18.1093C54.3436 17.2064 54.3436 16.0667 53.7923 15.1639L50.1794 9.31742C49.6861 8.51816 48.8156 8.02972 47.887 8.02972H34.0015C32.507 8.02972 31.2882 9.27302 31.2882 10.7975C31.2882 11.3156 31.4333 11.8336 31.709 12.2776L42.2718 29.3581V29.3433Z" fill="white"/>
</g>
<defs>
<clipPath id="clip0_792_1432">
<rect width="196.571" height="48" fill="white" transform="translate(0 8)"/>
</clipPath>
</defs>
</svg>
